<svg xmlns="http://www.w3.org/2000/svg" xml:space="preserve" width="512px" height="512px" version="1.1"
     style="shape-rendering:geometricPrecision; text-rendering:geometricPrecision; image-rendering:optimizeQuality; fill-rule:evenodd; clip-rule:evenodd"
     viewBox="0 0 512 512" xmlns:xlink="http://www.w3.org/1999/xlink">
 <g>
  <path d="M256 512c-29,0 -56,-5 -82,-14l0 -10 0 -8 0 -35c25,11 53,17 82,17 29,0 57,-6 82,-17l0 35 0 8 0 11c-26,8 -53,13 -82,13zm97 -24l0 -9 0 -41c65,-35 109,-104 109,-182 0,-115 -92,-206 -206,-206 -113,0 -206,92 -206,206 0,79 44,147 109,182l0 44c0,0 0,5 0,11 -93,-39 -159,-130 -159,-237 0,-141 115,-256 256,-256 141,0 256,115 256,256 0,107 -66,199 -159,237l0 -5zm-179 -59l0 -51c0,-45 37,-81 82,-81 45,0 82,36 82,81l0 51c-25,11 -53,18 -82,18 -29,0 -57,-7 -82,-18zm179 -8l0 -43c0,-53 -44,-96 -97,-96 -54,0 -97,43 -97,96l0 43c-56,-34 -94,-95 -94,-165 0,-55 22,-104 59,-139l0 58c0,16 13,29 29,29l206 0c16,0 30,-13 31,-29l0 -56c35,34 58,83 57,137 0,70 -38,131 -94,165zm-214 -317l0 71c0,8 6,15 15,15l206 0c8,0 15,-7 15,-15l0 -70c-33,-25 -74,-41 -119,-41 -44,0 -85,15 -117,40zm132 47l-29 0c-9,0 -16,-7 -16,-16l0 -16c0,-8 7,-15 16,-15l29 0c8,0 15,7 15,15l0 16c0,9 -7,16 -15,16zm-29 -33c-1,0 -1,1 -1,1l0 16c0,1 0,1 1,1l29 0c0,0 1,0 1,-1l0 -16c0,0 -1,-1 -1,-1l-29 0zm-51 16l-24 0c-5,0 -8,-3 -8,-7 0,-4 3,-8 8,-8l24 0c4,0 7,4 7,8 0,4 -4,7 -7,7zm155 0l-24 0c-4,0 -8,-3 -8,-7 0,-4 4,-8 8,-8l24 0c4,0 7,4 7,8 0,4 -3,7 -7,7zm-90 278c-22,0 -40,-18 -40,-40 0,-22 18,-39 40,-39 22,0 40,17 40,39 0,22 -18,40 -40,40zm0 -65c-14,0 -25,11 -25,25 0,13 11,25 25,25 14,0 25,-12 25,-25 0,-14 -11,-25 -25,-25z"></path>
     <path d="M432 87c-2,0 -4,0 -5,-2 -3,-3 -3,-7 0,-10l47 -47c3,-3 7,-3 10,0 3,3 3,8 0,11l-47 46c-1,2 -3,2 -5,2z"></path>
     <path d="M449 106c-2,0 -4,-1 -5,-2 -3,-3 -3,-8 0,-11l31 -31c3,-3 8,-3 11,0 3,3 3,7 0,10l-32 32c-2,1 -4,2 -5,2z"></path>
     <path d="M414 70c-2,0 -4,0 -5,-2 -3,-3 -3,-7 0,-10l31 -32c3,-3 8,-3 11,0 3,3 3,8 0,11l-32 31c-2,2 -3,2 -5,2z"></path>
     <path d="M80 87c-1,0 -3,0 -5,-2l-46 -46c-3,-3 -3,-8 0,-11 3,-3 7,-3 10,0l47 47c3,3 3,7 0,10 -2,2 -4,2 -6,2z"></path>
     <path d="M99 70c-2,0 -4,0 -5,-2l-32 -31c-2,-3 -2,-8 0,-11 3,-3 8,-3 11,0l32 32c2,3 2,7 0,10 -2,2 -4,2 -6,2z"></path>
     <path d="M64 106c-2,0 -4,-1 -5,-2l-32 -32c-3,-3 -3,-7 0,-10 3,-3 8,-3 11,0l31 31c3,3 3,8 0,11 -2,1 -4,2 -5,2z"></path>
 </g>
</svg>
